<svg xmlns="http://www.w3.org/2000/svg" fill="none" viewBox="0 0 180 80">
    <g clip-path="url(#FIB_big_svg__clip0)">
        <mask id="FIB_big_svg__a" width="180" height="81" x="0" y="0" maskUnits="userSpaceOnUse">
            <path fill="#fff"
                  d="M90.978.333h15.467v2.162H93.472v7.65h11.643v2.163H93.472v9.314h-2.494V.332zm20.291 0h2.494v21.455h-2.494V.333zm9.147 0h9.314c2.661 0 4.823.831 6.154 2.162.998.998 1.663 2.495 1.663 4.324 0 3.493-2.495 5.655-5.821 6.32l6.653 8.815h-2.994l-6.32-8.316h-6.154v8.316h-2.495V.333zm8.981 10.977c3.16 0 5.489-1.663 5.489-4.49 0-2.662-1.996-4.325-5.489-4.325h-6.653v8.815h6.653zm12.475 7.318l1.496-1.83c2.163 1.996 4.325 2.994 7.319 2.994 2.827 0 4.823-1.497 4.823-3.659 0-1.996-.998-3.16-5.655-4.158-4.99-.998-7.152-2.661-7.152-6.154 0-3.326 2.994-5.821 7.152-5.821 3.16 0 5.322.832 7.484 2.661l-1.497 1.83c-1.995-1.664-3.991-2.329-6.153-2.329-2.828 0-4.657 1.497-4.657 3.493 0 1.996 1.164 3.16 5.821 4.158 4.989 1.164 7.152 2.827 7.152 6.154 0 3.659-2.994 6.154-7.318 6.154-3.327 0-6.154-1.165-8.815-3.493zm27.11-16.133h-7.152V.333h16.965v2.162h-7.152v19.293h-2.495V2.495h-.166zM90.978 29.272h4.657v21.456h-4.658V29.272zm10.478 0h9.812c2.662 0 4.824.832 6.321 2.163 1.164 1.164 1.829 2.827 1.829 4.99 0 3.492-1.829 5.654-4.657 6.652l5.322 7.65h-5.488l-4.657-6.818h-3.659v6.819h-4.823V29.272zm9.48 10.479c2.328 0 3.659-1.165 3.659-2.994 0-1.996-1.497-2.994-3.659-2.994h-4.657v6.154h4.657v-.166zm21.123-10.645h4.324l9.148 21.622h-4.99l-1.996-4.824h-9.147l-1.996 4.824h-4.823l9.48-21.622zm4.989 12.64l-2.827-6.985-2.827 6.985h5.654zm29.439 9.647l-2.329-2.162a11.71 11.71 0 01-6.32 1.83c-6.653 0-11.476-4.99-11.476-11.144s4.823-11.144 11.476-11.144c6.653 0 11.476 4.99 11.476 11.144 0 2.328-.665 4.324-1.83 6.154l2.163 1.83-3.16 3.492zm-5.822-5.156l-3.492-2.994 2.993-3.326 3.493 3.16c.333-.832.665-1.83.665-2.994 0-3.659-2.661-6.819-6.486-6.819-3.825 0-6.487 2.994-6.487 6.653 0 3.659 2.662 6.819 6.487 6.819.998.166 1.996-.166 2.827-.499zm13.306-16.965h4.657v21.456h-4.657V29.272zM90.977 58.38h9.148c2.495 0 4.324.665 5.655 1.829.831.998 1.33 1.996 1.33 3.493 0 2.827-1.663 4.324-3.492 4.99 2.494.83 4.657 2.162 4.657 5.155 0 3.66-3.16 5.822-7.817 5.822h-9.647v-21.29h.166zm8.815 9.646c2.994 0 4.99-1.33 4.99-3.825 0-2.162-1.663-3.493-4.823-3.493h-6.487v7.484h6.32v-.166zm.832 9.647c3.326 0 5.322-1.497 5.322-3.826 0-2.328-1.996-3.659-5.655-3.659h-6.819v7.65h7.152v-.165zm19.958-19.46h2.329l9.812 21.622h-2.661l-2.494-5.655h-11.643l-2.495 5.655h-2.494l9.646-21.622zm5.988 13.805l-4.824-10.977-4.989 10.977h9.813zm9.979-13.638h2.329l13.638 17.297V58.379h2.162v21.455h-1.996l-13.971-17.63v17.63h-2.328V58.378h.166zm24.283 0h2.495v12.806l12.308-12.806h3.16l-9.148 9.48L179.294 80H176.3l-8.316-10.478-4.657 4.657V80h-2.495V58.38zm-97.131-19.46L22.453 12.474h22.453c5.655 0 10.146 4.49 10.146 10.146 0 1.33-.166 2.494-.665 3.659l10.311 6.652c1.664-2.993 2.495-6.486 2.495-10.311 0-12.308-9.979-22.287-22.287-22.287H0v12.141l57.214 36.757c2.828 1.83 4.657 4.99 4.657 8.482 0 5.655-4.49 10.146-10.145 10.146H12.14V47.568h31.934l-18.96-12.142H0V80h51.726c12.307 0 22.287-9.98 22.287-22.287 0-7.983-4.159-14.802-10.312-18.794z"></path>
        </mask>
        <g mask="url(#FIB_big_svg__a)">
            <path fill="#fff" d="M0 0h179v80H0z"></path>
        </g>
    </g>
    <defs>
        <clipPath id="FIB_big_svg__clip0">
            <path fill="#fff" d="M0 0h179.127v80H0z"></path>
        </clipPath>
    </defs>
</svg>
